<?xml version="1.0" encoding="utf-8"?>
<!-- Generator: Adobe Illustrator 22.0.0, SVG Export Plug-In . SVG Version: 6.00 Build 0)  -->
<svg version="1.1" id="Layer_1" xmlns="http://www.w3.org/2000/svg" xmlns:xlink="http://www.w3.org/1999/xlink" x="0px" y="0px"
	 viewBox="0 0 560 420" style="enable-background:new 0 0 560 420;" xml:space="preserve">
<style type="text/css">
	.st0{fill:none;stroke:#262626;stroke-width:0.5;stroke-linecap:square;stroke-linejoin:round;stroke-miterlimit:10;}
	.st1{fill:#262626;}
	.st2{font-family:'CMUSerif-Roman';}
	.st3{font-size:10px;}
	.st4{fill:none;stroke:#000000;stroke-width:0.5;stroke-linejoin:bevel;stroke-miterlimit:1;stroke-dasharray:10,6;}
	.st5{fill:none;stroke:#000000;stroke-width:0.5;stroke-linejoin:round;stroke-miterlimit:10;}
	.st6{fill:none;stroke:#0000FF;stroke-width:0.5;stroke-linejoin:round;stroke-miterlimit:10;}
	.st7{fill:none;stroke:#FF0000;stroke-width:0.5;stroke-linejoin:round;stroke-miterlimit:10;}
	.st8{fill:#FFFFFF;}
	.st9{fill:none;stroke:#FF0000;stroke-miterlimit:10;}
	.st10{font-size:14px;}
</style>
<g>
	<line class="st0" x1="73" y1="101" x2="260" y2="101"/>
	<line class="st0" x1="73" y1="60" x2="260" y2="60"/>
	<line class="st0" x1="101.1" y1="101" x2="101.1" y2="99.1"/>
	<line class="st0" x1="133.8" y1="101" x2="133.8" y2="99.1"/>
	<line class="st0" x1="166.5" y1="101" x2="166.5" y2="99.1"/>
	<line class="st0" x1="199.2" y1="101" x2="199.2" y2="99.1"/>
	<line class="st0" x1="231.9" y1="101" x2="231.9" y2="99.1"/>
	<line class="st0" x1="101.1" y1="60" x2="101.1" y2="61.9"/>
	<line class="st0" x1="133.8" y1="60" x2="133.8" y2="61.9"/>
	<line class="st0" x1="166.5" y1="60" x2="166.5" y2="61.9"/>
	<line class="st0" x1="199.2" y1="60" x2="199.2" y2="61.9"/>
	<line class="st0" x1="231.9" y1="60" x2="231.9" y2="61.9"/>
</g>
<g transform="translate(101.1154,105)">
	<text transform="matrix(1 0 0 1 -6 10)" class="st1 st2 st3">40</text>
</g>
<g transform="translate(133.8077,105)">
	<text transform="matrix(1 0 0 1 -6 10)" class="st1 st2 st3">50</text>
</g>
<g transform="translate(166.5,105)">
	<text transform="matrix(1 0 0 1 -6 10)" class="st1 st2 st3">60</text>
</g>
<g transform="translate(199.1923,105)">
	<text transform="matrix(1 0 0 1 -6 10)" class="st1 st2 st3">70</text>
</g>
<g transform="translate(231.8846,105)">
	<text transform="matrix(1 0 0 1 -6 10)" class="st1 st2 st3">80</text>
</g>
<g>
	<line class="st0" x1="73" y1="101" x2="73" y2="60"/>
	<line class="st0" x1="260" y1="101" x2="260" y2="60"/>
	<line class="st0" x1="73" y1="80.5" x2="74.9" y2="80.5"/>
	<line class="st0" x1="260" y1="80.5" x2="258.1" y2="80.5"/>
</g>
<g transform="translate(69,80.5)">
	<text transform="matrix(1 0 0 1 -6 3.5)" class="st1 st2 st3">2</text>
</g>
<g>
	<line class="st4" x1="191" y1="80.5" x2="251.5" y2="80.5"/>
	<line class="st4" x1="81.5" y1="80.5" x2="117.5" y2="80.5"/>
	<line class="st5" x1="251.5" y1="82" x2="251.5" y2="79"/>
	<line class="st5" x1="81.5" y1="82" x2="81.5" y2="79"/>
</g>
<g>
	<path class="st6" d="M117.5,83.6H191v-6.1h-73.6V83.6"/>
	<line class="st7" x1="140.3" y1="83.6" x2="140.3" y2="77.4"/>
</g>
<g>
	<path class="st8" d="M319,101h188V60H319V101z"/>
</g>
<g>
	<line class="st0" x1="319" y1="101" x2="507" y2="101"/>
	<line class="st0" x1="319" y1="60" x2="507" y2="60"/>
	<line class="st0" x1="342.4" y1="101" x2="342.4" y2="99.1"/>
	<line class="st0" x1="388" y1="101" x2="388" y2="99.1"/>
	<line class="st0" x1="433.6" y1="101" x2="433.6" y2="99.1"/>
	<line class="st0" x1="479.2" y1="101" x2="479.2" y2="99.1"/>
	<line class="st0" x1="342.4" y1="60" x2="342.4" y2="61.9"/>
	<line class="st0" x1="388" y1="60" x2="388" y2="61.9"/>
	<line class="st0" x1="433.6" y1="60" x2="433.6" y2="61.9"/>
	<line class="st0" x1="479.2" y1="60" x2="479.2" y2="61.9"/>
</g>
<g transform="translate(342.4116,105)">
	<text transform="matrix(1 0 0 1 -6 10)" class="st1 st2 st3">20</text>
</g>
<g transform="translate(388.0132,105)">
	<text transform="matrix(1 0 0 1 -6 10)" class="st1 st2 st3">25</text>
</g>
<g transform="translate(433.6148,105)">
	<text transform="matrix(1 0 0 1 -6 10)" class="st1 st2 st3">30</text>
</g>
<g transform="translate(479.2164,105)">
	<text transform="matrix(1 0 0 1 -6 10)" class="st1 st2 st3">35</text>
</g>
<g>
	<line class="st0" x1="319" y1="101" x2="319" y2="60"/>
	<line class="st0" x1="507" y1="101" x2="507" y2="60"/>
	<line class="st0" x1="319" y1="80.5" x2="320.9" y2="80.5"/>
	<line class="st0" x1="507" y1="80.5" x2="505.1" y2="80.5"/>
</g>
<g transform="translate(315,80.5)">
	<text transform="matrix(1 0 0 1 -6 3.5)" class="st1 st2 st3">2</text>
</g>
<g>
	<line class="st4" x1="441.2" y1="80.5" x2="498.5" y2="80.5"/>
	<line class="st4" x1="327.5" y1="80.5" x2="368.4" y2="80.5"/>
	<line class="st5" x1="498.5" y1="82" x2="498.5" y2="79"/>
	<line class="st5" x1="327.5" y1="82" x2="327.5" y2="79"/>
</g>
<g>
	<path class="st6" d="M368.4,83.6h72.8v-6.1h-72.8V83.6"/>
	<line class="st7" x1="412.1" y1="83.6" x2="412.1" y2="77.4"/>
</g>
<g>
	<path class="st8" d="M73,169h187v-42H73V169z"/>
</g>
<g>
	<line class="st0" x1="73" y1="169" x2="260" y2="169"/>
	<line class="st0" x1="73" y1="127" x2="260" y2="127"/>
	<line class="st0" x1="120.4" y1="169" x2="120.4" y2="167.1"/>
	<line class="st0" x1="185.3" y1="169" x2="185.3" y2="167.1"/>
	<line class="st0" x1="250.2" y1="169" x2="250.2" y2="167.1"/>
	<line class="st0" x1="120.4" y1="127" x2="120.4" y2="128.9"/>
	<line class="st0" x1="185.3" y1="127" x2="185.3" y2="128.9"/>
	<line class="st0" x1="250.2" y1="127" x2="250.2" y2="128.9"/>
</g>
<g transform="translate(120.4313,173)">
	<text transform="matrix(1 0 0 1 -8.5 10)" class="st1 st2 st3">100</text>
</g>
<g transform="translate(185.3168,173)">
	<text transform="matrix(1 0 0 1 -8.5 10)" class="st1 st2 st3">150</text>
</g>
<g transform="translate(250.2023,173)">
	<text transform="matrix(1 0 0 1 -8.5 10)" class="st1 st2 st3">200</text>
</g>
<g>
	<line class="st0" x1="73" y1="169" x2="73" y2="127"/>
	<line class="st0" x1="260" y1="169" x2="260" y2="127"/>
	<line class="st0" x1="73" y1="148" x2="74.9" y2="148"/>
	<line class="st0" x1="260" y1="148" x2="258.1" y2="148"/>
</g>
<g transform="translate(69,148)">
	<text transform="matrix(1 0 0 1 -6 3.5)" class="st1 st2 st3">2</text>
</g>
<g>
	<line class="st4" x1="130.2" y1="148" x2="156.8" y2="148"/>
	<line class="st4" x1="81.5" y1="148" x2="110" y2="148"/>
	<line class="st5" x1="156.8" y1="149.6" x2="156.8" y2="146.4"/>
	<line class="st5" x1="81.5" y1="149.6" x2="81.5" y2="146.4"/>
</g>
<g>
	<path class="st6" d="M110,151.1h20.1v-6.3H110V151.1"/>
	<line class="st7" x1="117.8" y1="151.1" x2="117.8" y2="144.9"/>
</g>
<g transform="translate(160.6603,148)">
	<path class="st9" d="M0-3v6 M-3,0h6"/>
	<path class="st9" d="M0-3v6 M-3,0h6"/>
	<path class="st9" d="M3.9-3v6 M0.9,0h6"/>
	<path class="st9" d="M3.9-3v6 M0.9,0h6"/>
	<path class="st9" d="M9.1-3v6 M6.1,0h6"/>
	<path class="st9" d="M10.4-3v6 M7.4,0h6"/>
	<path class="st9" d="M27.3-3v6 M24.3,0h6"/>
	<path class="st9" d="M84.4-3v6 M81.4,0h6"/>
	<path class="st9" d="M88.2-3v6 M85.2,0h6"/>
	<path class="st9" d="M90.8-3v6 M87.8,0h6"/>
</g>
<g>
	<path class="st8" d="M319,169h188v-42H319V169z"/>
</g>
<g>
	<line class="st0" x1="319" y1="169" x2="507" y2="169"/>
	<line class="st0" x1="319" y1="127" x2="507" y2="127"/>
	<line class="st0" x1="320.1" y1="169" x2="320.1" y2="167.1"/>
	<line class="st0" x1="381.1" y1="169" x2="381.1" y2="167.1"/>
	<line class="st0" x1="442.1" y1="169" x2="442.1" y2="167.1"/>
	<line class="st0" x1="503.2" y1="169" x2="503.2" y2="167.1"/>
	<line class="st0" x1="320.1" y1="127" x2="320.1" y2="128.9"/>
	<line class="st0" x1="381.1" y1="127" x2="381.1" y2="128.9"/>
	<line class="st0" x1="442.1" y1="127" x2="442.1" y2="128.9"/>
	<line class="st0" x1="503.2" y1="127" x2="503.2" y2="128.9"/>
</g>
<g transform="translate(320.1268,173)">
	<text transform="matrix(1 0 0 1 -3 10)" class="st1 st2 st3">0</text>
</g>
<g transform="translate(381.1353,173)">
	<text transform="matrix(1 0 0 1 -6 10)" class="st1 st2 st3">20</text>
</g>
<g transform="translate(442.1437,173)">
	<text transform="matrix(1 0 0 1 -6 10)" class="st1 st2 st3">40</text>
</g>
<g transform="translate(503.1522,173)">
	<text transform="matrix(1 0 0 1 -6 10)" class="st1 st2 st3">60</text>
</g>
<g>
	<line class="st0" x1="319" y1="169" x2="319" y2="127"/>
	<line class="st0" x1="507" y1="169" x2="507" y2="127"/>
	<line class="st0" x1="319" y1="148" x2="320.9" y2="148"/>
	<line class="st0" x1="507" y1="148" x2="505.1" y2="148"/>
</g>
<g transform="translate(315,148)">
	<text transform="matrix(1 0 0 1 -6 3.5)" class="st1 st2 st3">2</text>
</g>
<g>
	<line class="st4" x1="370.2" y1="148" x2="412.3" y2="148"/>
	<line class="st4" x1="327.5" y1="148" x2="333.5" y2="148"/>
	<line class="st5" x1="412.3" y1="149.6" x2="412.3" y2="146.4"/>
	<line class="st5" x1="327.5" y1="149.6" x2="327.5" y2="146.4"/>
</g>
<g>
	<path class="st6" d="M333.5,151.1h36.7v-6.3h-36.7V151.1"/>
	<line class="st7" x1="345" y1="151.1" x2="345" y2="144.9"/>
</g>
<g transform="translate(432.8094,148)">
	<path class="st9" d="M0-3v6 M-3,0h6"/>
	<path class="st9" d="M14.2-3v6 M11.2,0h6"/>
	<path class="st9" d="M15.1-3v6 M12.1,0h6"/>
	<path class="st9" d="M45.4-3v6 M42.4,0h6"/>
	<path class="st9" d="M65.6-3v6 M62.6,0h6"/>
</g>
<g>
	<path class="st8" d="M73,237h187v-42H73V237z"/>
</g>
<g>
	<line class="st0" x1="73" y1="237" x2="260" y2="237"/>
	<line class="st0" x1="73" y1="195" x2="260" y2="195"/>
	<line class="st0" x1="78" y1="237" x2="78" y2="235.1"/>
	<line class="st0" x1="112.6" y1="237" x2="112.6" y2="235.1"/>
	<line class="st0" x1="147.2" y1="237" x2="147.2" y2="235.1"/>
	<line class="st0" x1="181.9" y1="237" x2="181.9" y2="235.1"/>
	<line class="st0" x1="216.5" y1="237" x2="216.5" y2="235.1"/>
	<line class="st0" x1="251.2" y1="237" x2="251.2" y2="235.1"/>
	<line class="st0" x1="78" y1="195" x2="78" y2="196.9"/>
	<line class="st0" x1="112.6" y1="195" x2="112.6" y2="196.9"/>
	<line class="st0" x1="147.2" y1="195" x2="147.2" y2="196.9"/>
	<line class="st0" x1="181.9" y1="195" x2="181.9" y2="196.9"/>
	<line class="st0" x1="216.5" y1="195" x2="216.5" y2="196.9"/>
	<line class="st0" x1="251.2" y1="195" x2="251.2" y2="196.9"/>
</g>
<g transform="translate(77.9816,241)">
	<text transform="matrix(1 0 0 1 -3 10)" class="st1 st2 st3">0</text>
</g>
<g transform="translate(112.6156,241)">
	<text transform="matrix(1 0 0 1 -3 10)" class="st1 st2 st3">5</text>
</g>
<g transform="translate(147.2495,241)">
	<text transform="matrix(1 0 0 1 -6 10)" class="st1 st2 st3">10</text>
</g>
<g transform="translate(181.8834,241)">
	<text transform="matrix(1 0 0 1 -6 10)" class="st1 st2 st3">15</text>
</g>
<g transform="translate(216.5174,241)">
	<text transform="matrix(1 0 0 1 -6 10)" class="st1 st2 st3">20</text>
</g>
<g transform="translate(251.1513,241)">
	<text transform="matrix(1 0 0 1 -6 10)" class="st1 st2 st3">25</text>
</g>
<g>
	<line class="st0" x1="73" y1="237" x2="73" y2="195"/>
	<line class="st0" x1="260" y1="237" x2="260" y2="195"/>
	<line class="st0" x1="73" y1="216" x2="74.9" y2="216"/>
	<line class="st0" x1="260" y1="216" x2="258.1" y2="216"/>
</g>
<g transform="translate(69,216)">
	<text transform="matrix(1 0 0 1 -6 3.5)" class="st1 st2 st3">2</text>
</g>
<g>
	<line class="st4" x1="108.9" y1="216" x2="135" y2="216"/>
	<line class="st4" x1="81.5" y1="216" x2="85" y2="216"/>
	<line class="st5" x1="135" y1="217.6" x2="135" y2="214.4"/>
	<line class="st5" x1="81.5" y1="217.6" x2="81.5" y2="214.4"/>
</g>
<g>
	<path class="st6" d="M85,219.1h23.9v-6.3H85V219.1"/>
	<line class="st7" x1="93.5" y1="219.1" x2="93.5" y2="212.9"/>
</g>
<g transform="translate(145.4209,216)">
	<path class="st9" d="M0-3v6 M-3,0h6"/>
	<path class="st9" d="M24.2-3v6 M21.2,0h6"/>
	<path class="st9" d="M38.4-3v6 M35.4,0h6"/>
	<path class="st9" d="M75.5-3v6 M72.5,0h6"/>
	<path class="st9" d="M106.1-3v6 M103.1,0h6"/>
</g>
<g>
	<path class="st8" d="M319,237h188v-42H319V237z"/>
</g>
<g>
	<line class="st0" x1="319" y1="237" x2="507" y2="237"/>
	<line class="st0" x1="319" y1="195" x2="507" y2="195"/>
	<line class="st0" x1="355.4" y1="237" x2="355.4" y2="235.1"/>
	<line class="st0" x1="396.1" y1="237" x2="396.1" y2="235.1"/>
	<line class="st0" x1="436.8" y1="237" x2="436.8" y2="235.1"/>
	<line class="st0" x1="477.5" y1="237" x2="477.5" y2="235.1"/>
	<line class="st0" x1="355.4" y1="195" x2="355.4" y2="196.9"/>
	<line class="st0" x1="396.1" y1="195" x2="396.1" y2="196.9"/>
	<line class="st0" x1="436.8" y1="195" x2="436.8" y2="196.9"/>
	<line class="st0" x1="477.5" y1="195" x2="477.5" y2="196.9"/>
</g>
<g transform="translate(355.3688,241)">
	<text transform="matrix(1 0 0 1 -6 10)" class="st1 st2 st3">20</text>
</g>
<g transform="translate(396.0876,241)">
	<text transform="matrix(1 0 0 1 -6 10)" class="st1 st2 st3">40</text>
</g>
<g transform="translate(436.8063,241)">
	<text transform="matrix(1 0 0 1 -6 10)" class="st1 st2 st3">60</text>
</g>
<g transform="translate(477.5251,241)">
	<text transform="matrix(1 0 0 1 -6 10)" class="st1 st2 st3">80</text>
</g>
<g>
	<line class="st0" x1="319" y1="237" x2="319" y2="195"/>
	<line class="st0" x1="507" y1="237" x2="507" y2="195"/>
	<line class="st0" x1="319" y1="216" x2="320.9" y2="216"/>
	<line class="st0" x1="507" y1="216" x2="505.1" y2="216"/>
</g>
<g transform="translate(315,216)">
	<text transform="matrix(1 0 0 1 -6 3.5)" class="st1 st2 st3">2</text>
</g>
<g>
	<line class="st4" x1="391.4" y1="216" x2="459" y2="216"/>
	<line class="st4" x1="327.5" y1="216" x2="339.7" y2="216"/>
	<line class="st5" x1="459" y1="217.6" x2="459" y2="214.4"/>
	<line class="st5" x1="327.5" y1="217.6" x2="327.5" y2="214.4"/>
</g>
<g>
	<path class="st6" d="M339.7,219.1h51.7v-6.3h-51.7V219.1"/>
	<line class="st7" x1="352.7" y1="219.1" x2="352.7" y2="212.9"/>
</g>
<g transform="translate(496.3983,216)">
	<path class="st9" d="M0-3v6 M-3,0h6"/>
	<path class="st9" d="M2.1-3v6 M-0.9,0h6"/>
</g>
<g>
	<path class="st8" d="M73,305h187v-43H73V305z"/>
</g>
<g>
	<line class="st0" x1="73" y1="305" x2="260" y2="305"/>
	<line class="st0" x1="73" y1="262" x2="260" y2="262"/>
	<line class="st0" x1="125.7" y1="305" x2="125.7" y2="303.1"/>
	<line class="st0" x1="178.7" y1="305" x2="178.7" y2="303.1"/>
	<line class="st0" x1="231.6" y1="305" x2="231.6" y2="303.1"/>
	<line class="st0" x1="125.7" y1="262" x2="125.7" y2="263.9"/>
	<line class="st0" x1="178.7" y1="262" x2="178.7" y2="263.9"/>
	<line class="st0" x1="231.6" y1="262" x2="231.6" y2="263.9"/>
</g>
<g transform="translate(125.6976,309)">
	<text transform="matrix(1 0 0 1 -6 10)" class="st1 st2 st3">10</text>
</g>
<g transform="translate(178.667,309)">
	<text transform="matrix(1 0 0 1 -6 10)" class="st1 st2 st3">20</text>
</g>
<g transform="translate(231.6365,309)">
	<text transform="matrix(1 0 0 1 -6 10)" class="st1 st2 st3">30</text>
</g>
<g>
	<line class="st0" x1="73" y1="305" x2="73" y2="262"/>
	<line class="st0" x1="260" y1="305" x2="260" y2="262"/>
	<line class="st0" x1="73" y1="283.5" x2="74.9" y2="283.5"/>
	<line class="st0" x1="260" y1="283.5" x2="258.1" y2="283.5"/>
</g>
<g transform="translate(69,283.5)">
	<text transform="matrix(1 0 0 1 -6 3.5)" class="st1 st2 st3">2</text>
</g>
<g>
	<line class="st4" x1="139.3" y1="283.5" x2="192.1" y2="283.5"/>
	<line class="st4" x1="81.5" y1="283.5" x2="102.2" y2="283.5"/>
	<line class="st5" x1="192.1" y1="285.1" x2="192.1" y2="281.9"/>
	<line class="st5" x1="81.5" y1="285.1" x2="81.5" y2="281.9"/>
</g>
<g>
	<path class="st6" d="M102.2,286.7h37.1v-6.5h-37.1V286.7"/>
	<line class="st7" x1="117.6" y1="286.7" x2="117.6" y2="280.3"/>
</g>
<g transform="translate(251.5,283.5)">
	<path class="st9" d="M0-3v6 M-3,0h6"/>
</g>
<g>
	<path class="st8" d="M319,305h188v-43H319V305z"/>
</g>
<g>
	<line class="st0" x1="319" y1="305" x2="507" y2="305"/>
	<line class="st0" x1="319" y1="262" x2="507" y2="262"/>
	<line class="st0" x1="349.9" y1="305" x2="349.9" y2="303.1"/>
	<line class="st0" x1="382.7" y1="305" x2="382.7" y2="303.1"/>
	<line class="st0" x1="415.6" y1="305" x2="415.6" y2="303.1"/>
	<line class="st0" x1="448.5" y1="305" x2="448.5" y2="303.1"/>
	<line class="st0" x1="481.3" y1="305" x2="481.3" y2="303.1"/>
	<line class="st0" x1="349.9" y1="262" x2="349.9" y2="263.9"/>
	<line class="st0" x1="382.7" y1="262" x2="382.7" y2="263.9"/>
	<line class="st0" x1="415.6" y1="262" x2="415.6" y2="263.9"/>
	<line class="st0" x1="448.5" y1="262" x2="448.5" y2="263.9"/>
	<line class="st0" x1="481.3" y1="262" x2="481.3" y2="263.9"/>
</g>
<g transform="translate(349.86,309)">
	<text transform="matrix(1 0 0 1 -6 10)" class="st1 st2 st3">10</text>
</g>
<g transform="translate(382.7238,309)">
	<text transform="matrix(1 0 0 1 -6 10)" class="st1 st2 st3">20</text>
</g>
<g transform="translate(415.5875,309)">
	<text transform="matrix(1 0 0 1 -6 10)" class="st1 st2 st3">30</text>
</g>
<g transform="translate(448.4513,309)">
	<text transform="matrix(1 0 0 1 -6 10)" class="st1 st2 st3">40</text>
</g>
<g transform="translate(481.3151,309)">
	<text transform="matrix(1 0 0 1 -6 10)" class="st1 st2 st3">50</text>
</g>
<g>
	<line class="st0" x1="319" y1="305" x2="319" y2="262"/>
	<line class="st0" x1="507" y1="305" x2="507" y2="262"/>
	<line class="st0" x1="319" y1="283.5" x2="320.9" y2="283.5"/>
	<line class="st0" x1="507" y1="283.5" x2="505.1" y2="283.5"/>
</g>
<g transform="translate(315,283.5)">
	<text transform="matrix(1 0 0 1 -6 3.5)" class="st1 st2 st3">2</text>
</g>
<g>
	<line class="st4" x1="392.6" y1="283.5" x2="457.5" y2="283.5"/>
	<line class="st4" x1="327.5" y1="283.5" x2="343.1" y2="283.5"/>
	<line class="st5" x1="457.5" y1="285.1" x2="457.5" y2="281.9"/>
	<line class="st5" x1="327.5" y1="285.1" x2="327.5" y2="281.9"/>
</g>
<g>
	<path class="st6" d="M343.1,286.7h49.6v-6.5h-49.6V286.7"/>
	<line class="st7" x1="362.9" y1="286.7" x2="362.9" y2="280.3"/>
</g>
<g transform="translate(478.8235,283.5)">
	<path class="st9" d="M0-3v6 M-3,0h6"/>
	<path class="st9" d="M14.4-3v6 M11.4,0h6"/>
	<path class="st9" d="M14.6-3v6 M11.6,0h6"/>
	<path class="st9" d="M19.6-3v6 M16.6,0h6"/>
</g>
<g>
	<path class="st8" d="M73,376h187v-46H73V376z"/>
</g>
<g>
	<line class="st0" x1="73" y1="376" x2="260" y2="376"/>
	<line class="st0" x1="73" y1="330" x2="260" y2="330"/>
	<line class="st0" x1="124.8" y1="376" x2="124.8" y2="374.1"/>
	<line class="st0" x1="177.7" y1="376" x2="177.7" y2="374.1"/>
	<line class="st0" x1="230.5" y1="376" x2="230.5" y2="374.1"/>
	<line class="st0" x1="124.8" y1="330" x2="124.8" y2="331.9"/>
	<line class="st0" x1="177.7" y1="330" x2="177.7" y2="331.9"/>
	<line class="st0" x1="230.5" y1="330" x2="230.5" y2="331.9"/>
</g>
<g transform="translate(124.8268,380)">
	<text transform="matrix(1 0 0 1 -8.5 10)" class="st1 st2 st3">500</text>
</g>
<g transform="translate(177.676,380)">
	<text transform="matrix(1 0 0 1 -11.5 10)" class="st1 st2 st3">1000</text>
</g>
<g transform="translate(230.5252,380)">
	<text transform="matrix(1 0 0 1 -11.5 10)" class="st1 st2 st3">1500</text>
</g>
<g>
	<line class="st0" x1="73" y1="376" x2="73" y2="330"/>
	<line class="st0" x1="260" y1="376" x2="260" y2="330"/>
	<line class="st0" x1="73" y1="353" x2="74.9" y2="353"/>
	<line class="st0" x1="260" y1="353" x2="258.1" y2="353"/>
</g>
<g transform="translate(69,353)">
	<text transform="matrix(1 0 0 1 -6 3.5)" class="st1 st2 st3">2</text>
</g>
<g>
	<line class="st4" x1="150" y1="353" x2="186" y2="353"/>
	<line class="st4" x1="81.5" y1="353" x2="103.2" y2="353"/>
	<line class="st5" x1="186" y1="354.7" x2="186" y2="351.3"/>
	<line class="st5" x1="81.5" y1="354.7" x2="81.5" y2="351.3"/>
</g>
<g>
	<path class="st6" d="M103.2,356.5H150v-6.9h-46.8V356.5"/>
	<line class="st7" x1="119.4" y1="356.5" x2="119.4" y2="349.5"/>
</g>
<g transform="translate(251.5,353)">
	<path class="st9" d="M0-3v6 M-3,0h6"/>
	<path class="st9" d="M0-3v6 M-3,0h6"/>
	<path class="st9" d="M0-3v6 M-3,0h6"/>
	<path class="st9" d="M0-3v6 M-3,0h6"/>
</g>
<g transform="translate(280,21)">
	<text transform="matrix(1 0 0 1 -60.5 5.5)" class="st2 st10">Grupo 2: Pacientes</text>
</g>
<g>
	<path class="st8" d="M319,376h188v-46H319V376z"/>
</g>
<g>
	<line class="st0" x1="319" y1="376" x2="507" y2="376"/>
	<line class="st0" x1="319" y1="330" x2="507" y2="330"/>
	<line class="st0" x1="319" y1="376" x2="319" y2="374.1"/>
	<line class="st0" x1="413" y1="376" x2="413" y2="374.1"/>
	<line class="st0" x1="507" y1="376" x2="507" y2="374.1"/>
	<line class="st0" x1="319" y1="330" x2="319" y2="331.9"/>
	<line class="st0" x1="413" y1="330" x2="413" y2="331.9"/>
	<line class="st0" x1="507" y1="330" x2="507" y2="331.9"/>
</g>
<g transform="translate(319,380)">
	<text transform="matrix(1 0 0 1 -7 10)" class="st1 st2 st3">1.5</text>
</g>
<g transform="translate(413,380)">
	<text transform="matrix(1 0 0 1 -3 10)" class="st1 st2 st3">2</text>
</g>
<g transform="translate(507,380)">
	<text transform="matrix(1 0 0 1 -7 10)" class="st1 st2 st3">2.5</text>
</g>
<g>
	<line class="st0" x1="319" y1="376" x2="319" y2="330"/>
	<line class="st0" x1="507" y1="376" x2="507" y2="330"/>
	<line class="st0" x1="319" y1="353" x2="320.9" y2="353"/>
	<line class="st0" x1="507" y1="353" x2="505.1" y2="353"/>
</g>
<g transform="translate(315,353)">
	<text transform="matrix(1 0 0 1 -6 3.5)" class="st1 st2 st3">2</text>
</g>
<g>
	<line class="st4" x1="413" y1="353" x2="413" y2="353"/>
	<line class="st4" x1="413" y1="353" x2="413" y2="353"/>
	<line class="st5" x1="413" y1="354.7" x2="413" y2="351.3"/>
	<line class="st5" x1="413" y1="354.7" x2="413" y2="351.3"/>
</g>
<g>
	<path class="st6" d="M413,356.5L413,356.5v-6.9l0,0V356.5"/>
	<line class="st7" x1="413" y1="356.5" x2="413" y2="349.5"/>
</g>
</svg>
